{"title":"Cash.2010.DVDRiP.XviD.MULTISUB-Zen_Bud ","uid":5946427,"size":767178986,"categoryP":"video","categoryS":"movies","magnet":"?xt=urn:btih:a09000e754700a25af1cc9415da50e93bc01494f&amp;dn=+Cash.2010.DVDRiP.XviD.MULTISUB-Zen_Bud+&amp;tr=udp%3A%2F%2Ftracker.openbittorrent.com%3A80&amp;tr=udp%3A%2F%2Fopen.demonii.com%3A1337&amp;tr=udp%3A%2F%2Ftracker.coppersurfer.tk%3A6969&amp;tr=udp%3A%2F%2Fexodus.desync.com%3A6969","seeders":0,"leechers":0,"uploader":"Zen_Bud","files":-1,"time":1289380494,"description":"######### Cash.2010.DVDRiP.XviD.MULTISUB-Zen_Bud ########\n\nFormat                           : AVI\nFormat profile                   : OpenDML\nFile size                        : 700 MiB\nDuration                         : 1h 43mn\nOverall bit rate                 : 947 Kbps\nWriting application              : AVI-Mux GUI 1.17.8.3\n\nVideo\n\nFormat                           : MPEG-4 Visual\nCodec ID/Hint                    : XviD\nDuration                         : 1h 43mn\nBit rate                         : 815 Kbps\nWidth                            : 720 pixels\nHeight                           : 576 pixels\nDisplay aspect ratio             : 16:9\nStream size                      : 603 MiB (86%)\nWriting library                  : XviD 1.1.2 (UTC 2006-11-01)\n\nAudio\n\nFormat                           : MPEG Audio\nCodec ID/Hint                    : MP3\nDuration                         : 1h 43mn\nBit rate                         : 128 Kbps\nChannel(s)                       : 2 channels\nSampling rate                    : 48.0 KHz\nStream size                      : 94.7 MiB (14%)\nLanguage                         : English\n\nText #1\n\nLanguage                         : English\n\nText #2\nLanguage                         : French\n\nText #3\nLanguage                         : Spanish\n\nText #4\nLanguage                         : Danish\n\nText #5\nLanguage                         : Finnish\n\nText #6\nLanguage                         : Norwegian\n\nText #7\nLanguage                         : Swedish\n\n\nA man meets up with two &quot;good guys&quot; to recover what is unlawfully his, taking them on his whirlwind ride, doing things they never would have imagined, just to survive.\n\n &lt;a href=&quot;\nhttp://en.wikipedia.org/wiki/Cash_%282010_film%29&quot; rel=&quot;nofollow&quot; target=&quot;_NEW&quot;&gt;\nhttp://en.wikipedia.org/wiki/Cash_%282010_film%29&lt;/a&gt;","torrent":{"xt":"urn:btih:a09000e754700a25af1cc9415da50e93bc01494f","amp;dn":"+Cash.2010.DVDRiP.XviD.MULTISUB-Zen_Bud+","amp;tr":["udp%3A%2F%2Ftracker.openbittorrent.com%3A80","udp%3A%2F%2Fopen.demonii.com%3A1337","udp%3A%2F%2Ftracker.coppersurfer.tk%3A6969","udp%3A%2F%2Fexodus.desync.com%3A6969"],"infoHash":"a09000e754700a25af1cc9415da50e93bc01494f","infoHashBuffer":{"type":"Buffer","data":[160,144,0,231,84,112,10,37,175,28,201,65,93,165,14,147,188,1,73,79]},"announce":[],"urlList":[]}}